<svg width="147" height="22" viewBox="0 0 147 22" fill="none" xmlns="http://www.w3.org/2000/svg">
<path d="M15.0799 10.299H21.0249V18.883C19.8263 19.7143 18.4343 20.3523 16.8489 20.797C15.2636 21.2416 13.7073 21.464 12.1799 21.464C10.0146 21.464 8.07161 21.0193 6.35094 20.13C4.63028 19.2213 3.27694 17.9646 2.29094 16.36C1.32428 14.736 0.840942 12.8993 0.840942 10.85C0.840942 8.80063 1.32428 6.97363 2.29094 5.36896C3.27694 3.74496 4.63994 2.48829 6.37994 1.59896C8.13928 0.690295 10.1209 0.235962 12.3249 0.235962C14.3163 0.235962 16.0949 0.574295 17.6609 1.25096C19.2463 1.90829 20.5609 2.87496 21.6049 4.15096L17.2259 8.00796C15.9499 6.51929 14.4323 5.77496 12.6729 5.77496C11.1649 5.77496 9.96628 6.22929 9.07694 7.13796C8.18761 8.04663 7.74294 9.28396 7.74294 10.85C7.74294 12.3773 8.17794 13.605 9.04794 14.533C9.93728 15.461 11.1166 15.925 12.5859 15.925C13.4559 15.925 14.2873 15.7606 15.0799 15.432V10.299Z" fill="#ECEDE7"/>
<path d="M37.774 17.462H30.06L28.697 21H21.737L30.611 0.699961H37.339L46.213 21H39.137L37.774 17.462ZM35.889 12.532L33.917 7.42796L31.945 12.532H35.889Z" fill="#ECEDE7"/>
<path d="M56.0053 15.896H54.1493V21H47.3053V0.699961H57.0783C58.9536 0.699961 60.5873 1.00929 61.9793 1.62796C63.3713 2.24663 64.4443 3.13596 65.1983 4.29596C65.9523 5.45596 66.3293 6.80929 66.3293 8.35596C66.3293 9.80596 66.0006 11.0723 65.3433 12.155C64.686 13.2376 63.7386 14.098 62.5013 14.736L66.7643 21H59.4563L56.0053 15.896ZM59.4273 8.35596C59.4273 7.60196 59.1953 7.02196 58.7313 6.61596C58.2673 6.19063 57.5713 5.97796 56.6433 5.97796H54.1493V10.734H56.6433C57.5713 10.734 58.2673 10.531 58.7313 10.125C59.1953 9.69963 59.4273 9.10996 59.4273 8.35596Z" fill="#ECEDE7"/>
<path d="M77.6137 15.896H75.7577V21H68.9137V0.699961H78.6867C80.562 0.699961 82.1957 1.00929 83.5877 1.62796C84.9797 2.24663 86.0527 3.13596 86.8067 4.29596C87.5607 5.45596 87.9377 6.80929 87.9377 8.35596C87.9377 9.80596 87.609 11.0723 86.9517 12.155C86.2944 13.2376 85.347 14.098 84.1097 14.736L88.3727 21H81.0647L77.6137 15.896ZM81.0357 8.35596C81.0357 7.60196 80.8037 7.02196 80.3397 6.61596C79.8757 6.19063 79.1797 5.97796 78.2517 5.97796H75.7577V10.734H78.2517C79.1797 10.734 79.8757 10.531 80.3397 10.125C80.8037 9.69963 81.0357 9.10996 81.0357 8.35596Z" fill="#ECEDE7"/>
<path d="M90.5221 0.699961H97.3661V21H90.5221V0.699961Z" fill="#ECEDE7"/>
<path d="M100.661 0.699961H110.666C112.928 0.699961 114.919 1.11563 116.64 1.94696C118.38 2.75896 119.723 3.92863 120.671 5.45596C121.637 6.98329 122.121 8.78129 122.121 10.85C122.121 12.9186 121.637 14.7166 120.671 16.244C119.723 17.7713 118.38 18.9506 116.64 19.782C114.919 20.594 112.928 21 110.666 21H100.661V0.699961ZM110.376 15.664C111.845 15.664 113.015 15.2483 113.885 14.417C114.774 13.5663 115.219 12.3773 115.219 10.85C115.219 9.32263 114.774 8.1433 113.885 7.31196C113.015 6.4613 111.845 6.03596 110.376 6.03596H107.505V15.664H110.376Z" fill="#ECEDE7"/>
<path d="M135.263 21.464C133.078 21.464 131.116 21.0096 129.376 20.101C127.636 19.1923 126.273 17.9356 125.287 16.331C124.301 14.707 123.808 12.88 123.808 10.85C123.808 8.81996 124.301 7.00263 125.287 5.39796C126.273 3.77396 127.636 2.50763 129.376 1.59896C131.116 0.690295 133.078 0.235962 135.263 0.235962C137.447 0.235962 139.41 0.690295 141.15 1.59896C142.89 2.50763 144.253 3.77396 145.239 5.39796C146.225 7.00263 146.718 8.81996 146.718 10.85C146.718 12.88 146.225 14.707 145.239 16.331C144.253 17.9356 142.89 19.1923 141.15 20.101C139.41 21.0096 137.447 21.464 135.263 21.464ZM135.263 15.925C136.113 15.925 136.877 15.722 137.554 15.316C138.25 14.8906 138.801 14.301 139.207 13.547C139.613 12.7736 139.816 11.8746 139.816 10.85C139.816 9.82529 139.613 8.93596 139.207 8.18196C138.801 7.40863 138.25 6.81896 137.554 6.41296C136.877 5.98763 136.113 5.77496 135.263 5.77496C134.412 5.77496 133.639 5.98763 132.943 6.41296C132.266 6.81896 131.725 7.40863 131.319 8.18196C130.913 8.93596 130.71 9.82529 130.71 10.85C130.71 11.8746 130.913 12.7736 131.319 13.547C131.725 14.301 132.266 14.8906 132.943 15.316C133.639 15.722 134.412 15.925 135.263 15.925Z" fill="#ECEDE7"/>
</svg>
